<?xml version="1.0" encoding="UTF-8" standalone="no"?> <svg xmlns="http://www.w3.org/2000/svg" xmlns:xlink="http://www.w3.org/1999/xlink" xmlns:serif="http://www.serif.com/" width="100%" height="100%" viewBox="0 0 85 21" version="1.1" xml:space="preserve" style="fill-rule:evenodd;clip-rule:evenodd;stroke-linejoin:round;stroke-miterlimit:2;"> <g id="Logo"> <g> <path d="M28.536,17.971C28.513,18.111 28.606,18.205 28.746,18.205L30.893,18.205C31.033,18.205 31.103,18.111 31.126,17.971L32.27,11.508C32.293,11.415 32.34,11.368 32.433,11.368L38.289,11.368C38.383,11.368 38.429,11.415 38.406,11.508L37.286,17.971C37.263,18.111 37.333,18.205 37.473,18.205L39.596,18.205C39.736,18.205 39.829,18.111 39.853,17.971L42.583,2.572C42.606,2.432 42.513,2.339 42.373,2.339L40.249,2.339C40.109,2.339 40.039,2.432 40.016,2.572L38.896,8.895C38.873,8.988 38.826,9.035 38.733,9.035L32.853,9.035C32.76,9.035 32.713,8.988 32.736,8.895L33.856,2.572C33.88,2.432 33.81,2.339 33.67,2.339L31.523,2.339C31.383,2.339 31.29,2.432 31.266,2.572L28.536,17.971Z" style="fill:white;fill-rule:nonzero;"></path> <path d="M42.746,17.971C42.723,18.111 42.816,18.205 42.956,18.205L45.103,18.205C45.243,18.205 45.313,18.111 45.336,17.971L48.066,2.572C48.089,2.432 48.019,2.339 47.879,2.339L45.733,2.339C45.593,2.339 45.499,2.432 45.476,2.572L42.746,17.971Z" style="fill:white;fill-rule:nonzero;"></path> <path d="M54.296,18.205C54.436,18.205 54.506,18.111 54.576,17.971L62.182,2.572C62.252,2.432 62.159,2.339 62.019,2.339L59.802,2.339C59.615,2.339 59.545,2.409 59.452,2.572L54.109,14.075L54.039,14.075L52.639,2.572C52.616,2.409 52.522,2.339 52.336,2.339L50.282,2.339C50.142,2.339 50.049,2.432 50.072,2.572L52.196,17.971C52.219,18.111 52.289,18.205 52.429,18.205L54.296,18.205Z" style="fill:white;fill-rule:nonzero;"></path> <path d="M60.969,17.971C60.945,18.111 61.039,18.205 61.179,18.205L70.652,18.205C70.792,18.205 70.885,18.111 70.908,17.971L71.235,16.105C71.258,15.965 71.188,15.871 71.048,15.871L64.072,15.871C63.979,15.871 63.932,15.825 63.955,15.731L64.702,11.508C64.725,11.415 64.772,11.368 64.865,11.368L70.745,11.368C70.885,11.368 71.002,11.275 71.025,11.135L71.375,9.268C71.398,9.128 71.328,9.035 71.188,9.035L65.285,9.035C65.192,9.035 65.145,8.988 65.169,8.895L65.892,4.812C65.915,4.719 65.962,4.672 66.055,4.672L73.032,4.672C73.172,4.672 73.288,4.579 73.312,4.439L73.638,2.572C73.662,2.432 73.568,2.339 73.428,2.339L63.955,2.339C63.815,2.339 63.722,2.432 63.699,2.572L60.969,17.971Z" style="fill:white;fill-rule:nonzero;"></path> <path d="M76.312,6.798C76.305,6.837 76.331,6.864 76.371,6.864L77.896,6.864C78.625,6.864 79.118,6.66 79.44,5.996C79.71,5.457 79.907,4.182 79.907,3.63C79.907,2.854 79.526,2.394 78.678,2.394L77.153,2.394C77.113,2.394 77.087,2.42 77.081,2.46L76.312,6.798ZM77.153,6.167L77.698,3.091C77.705,3.064 77.712,3.051 77.738,3.051L78.395,3.051C78.908,3.051 79.197,3.255 79.197,3.774C79.197,4.175 78.993,5.299 78.836,5.628C78.632,6.035 78.316,6.206 77.843,6.206L77.186,6.206C77.159,6.206 77.146,6.193 77.153,6.167Z" style="fill:white;fill-rule:nonzero;"></path> <path d="M81.052,5.595C81.052,6.476 81.597,6.936 82.386,6.936C83.076,6.936 83.569,6.653 83.977,5.989C83.997,5.957 83.99,5.924 83.964,5.911L83.484,5.661C83.444,5.641 83.412,5.661 83.392,5.694C83.195,6.016 82.886,6.272 82.504,6.272C82.044,6.272 81.801,5.989 81.801,5.536C81.801,5.214 81.998,3.971 82.176,3.597C82.36,3.222 82.642,2.979 83.07,2.979C83.49,2.979 83.681,3.242 83.766,3.564C83.773,3.597 83.806,3.617 83.845,3.597L84.365,3.367C84.404,3.354 84.424,3.321 84.411,3.288C84.266,2.696 83.826,2.322 83.155,2.322C82.406,2.322 81.86,2.637 81.518,3.347C81.288,3.801 81.052,5.227 81.052,5.595Z" style="fill:white;fill-rule:nonzero;"></path> </g> <g id="Gradient"> <path d="M23.19,6.216L22.646,9.701L2.154,9.701L2.698,6.216L1.32,6.216L0,14.671L1.378,14.671L1.941,11.063L22.434,11.063L21.871,14.671L23.248,14.671L24.568,6.216L23.19,6.216Z" style="fill:url(#_Radial1);fill-rule:nonzero;"></path> <path d="M5.198,6.216C4.822,6.216 4.518,6.521 4.518,6.896C4.518,7.272 4.822,7.577 5.198,7.577L21.087,7.577C21.463,7.577 21.768,7.272 21.768,6.896C21.768,6.521 21.463,6.216 21.087,6.216L5.198,6.216Z" style="fill:url(#_Radial2);fill-rule:nonzero;"></path> <path d="M4.179,3.004C3.803,3.004 3.498,3.309 3.498,3.684C3.498,4.06 3.803,4.365 4.179,4.365L20.382,4.365C20.758,4.365 21.062,4.06 21.062,3.684C21.062,3.309 20.758,3.004 20.382,3.004L4.179,3.004Z" style="fill:url(#_Radial3);fill-rule:nonzero;"></path> <path d="M6.779,0C6.403,0 6.099,0.305 6.099,0.681C6.099,1.056 6.403,1.361 6.779,1.361L17.859,1.361C18.234,1.361 18.539,1.056 18.539,0.681C18.539,0.305 18.234,0 17.859,0L6.779,0Z" style="fill:url(#_Radial4);fill-rule:nonzero;"></path> <path d="M3.787,13.319C3.411,13.319 3.106,13.624 3.106,13.999C3.106,14.375 3.411,14.68 3.787,14.68L19.676,14.68C20.052,14.68 20.357,14.375 20.357,13.999C20.357,13.624 20.052,13.319 19.676,13.319L3.787,13.319Z" style="fill:url(#_Radial5);fill-rule:nonzero;"></path> <path d="M4.414,16.531C4.038,16.531 3.734,16.836 3.734,17.212C3.734,17.588 4.038,17.892 4.414,17.892L20.382,17.892C20.758,17.892 21.062,17.588 21.062,17.212C21.062,16.836 20.758,16.531 20.382,16.531L4.414,16.531Z" style="fill:url(#_Radial6);fill-rule:nonzero;"></path> <path d="M6.779,19.535C6.403,19.535 6.099,19.839 6.099,20.215C6.099,20.591 6.403,20.896 6.779,20.896L17.859,20.896C18.234,20.896 18.539,20.591 18.539,20.215C18.539,19.839 18.234,19.535 17.859,19.535L6.779,19.535Z" style="fill:url(#_Radial7);fill-rule:nonzero;"></path> </g> </g> <defs> <radialGradient id="_Radial1" cx="0" cy="0" r="1" gradientUnits="userSpaceOnUse" gradientTransform="matrix(-7.19691,108.571,-108.571,-7.19691,21.1905,-6.23611)"><stop offset="0" style="stop-color:rgb(253,203,0);stop-opacity:1"></stop><stop offset="0.1" style="stop-color:rgb(253,203,0);stop-opacity:1"></stop><stop offset="0.47" style="stop-color:rgb(254,74,49);stop-opacity:1"></stop><stop offset="1" style="stop-color:rgb(254,74,49);stop-opacity:1"></stop></radialGradient> <radialGradient id="_Radial2" cx="0" cy="0" r="1" gradientUnits="userSpaceOnUse" gradientTransform="matrix(-7.19691,108.571,-108.571,-7.19691,21.1905,-6.23611)"><stop offset="0" style="stop-color:rgb(253,203,0);stop-opacity:1"></stop><stop offset="0.1" style="stop-color:rgb(253,203,0);stop-opacity:1"></stop><stop offset="0.47" style="stop-color:rgb(254,74,49);stop-opacity:1"></stop><stop offset="1" style="stop-color:rgb(254,74,49);stop-opacity:1"></stop></radialGradient> <radialGradient id="_Radial3" cx="0" cy="0" r="1" gradientUnits="userSpaceOnUse" gradientTransform="matrix(-7.19691,108.571,-108.571,-7.19691,21.1905,-6.23611)"><stop offset="0" style="stop-color:rgb(253,203,0);stop-opacity:1"></stop><stop offset="0.1" style="stop-color:rgb(253,203,0);stop-opacity:1"></stop><stop offset="0.47" style="stop-color:rgb(254,74,49);stop-opacity:1"></stop><stop offset="1" style="stop-color:rgb(254,74,49);stop-opacity:1"></stop></radialGradient> <radialGradient id="_Radial4" cx="0" cy="0" r="1" gradientUnits="userSpaceOnUse" gradientTransform="matrix(-7.19691,108.571,-108.571,-7.19691,21.1905,-6.23611)"><stop offset="0" style="stop-color:rgb(253,203,0);stop-opacity:1"></stop><stop offset="0.1" style="stop-color:rgb(253,203,0);stop-opacity:1"></stop><stop offset="0.47" style="stop-color:rgb(254,74,49);stop-opacity:1"></stop><stop offset="1" style="stop-color:rgb(254,74,49);stop-opacity:1"></stop></radialGradient> <radialGradient id="_Radial5" cx="0" cy="0" r="1" gradientUnits="userSpaceOnUse" gradientTransform="matrix(-7.19691,108.571,-108.571,-7.19691,21.1905,-6.23611)"><stop offset="0" style="stop-color:rgb(253,203,0);stop-opacity:1"></stop><stop offset="0.1" style="stop-color:rgb(253,203,0);stop-opacity:1"></stop><stop offset="0.47" style="stop-color:rgb(254,74,49);stop-opacity:1"></stop><stop offset="1" style="stop-color:rgb(254,74,49);stop-opacity:1"></stop></radialGradient> <radialGradient id="_Radial6" cx="0" cy="0" r="1" gradientUnits="userSpaceOnUse" gradientTransform="matrix(-7.19691,108.571,-108.571,-7.19691,21.1905,-6.23611)"><stop offset="0" style="stop-color:rgb(253,203,0);stop-opacity:1"></stop><stop offset="0.1" style="stop-color:rgb(253,203,0);stop-opacity:1"></stop><stop offset="0.47" style="stop-color:rgb(254,74,49);stop-opacity:1"></stop><stop offset="1" style="stop-color:rgb(254,74,49);stop-opacity:1"></stop></radialGradient> <radialGradient id="_Radial7" cx="0" cy="0" r="1" gradientUnits="userSpaceOnUse" gradientTransform="matrix(-7.19691,108.571,-108.571,-7.19691,21.1905,-6.23611)"><stop offset="0" style="stop-color:rgb(253,203,0);stop-opacity:1"></stop><stop offset="0.1" style="stop-color:rgb(253,203,0);stop-opacity:1"></stop><stop offset="0.47" style="stop-color:rgb(254,74,49);stop-opacity:1"></stop><stop offset="1" style="stop-color:rgb(254,74,49);stop-opacity:1"></stop></radialGradient> </defs> </svg> 